<svg xmlns="http://www.w3.org/2000/svg" xmlns:xlink="http://www.w3.org/1999/xlink" viewBox="0 0 400 400"><defs><style>.cls-1{fill:none;}.cls-2{fill:#606060;}.cls-3{clip-path:url(#clip-path);}.cls-4{fill:#fff;}</style><clipPath id="clip-path"><rect class="cls-1" y="21.69" width="400" height="356.61"/></clipPath></defs><title>icon-connections</title><g id="bkgd"><rect class="cls-2" x="-841" y="-875" width="2629" height="2045"/></g><g id="Layer_1" data-name="Layer 1"><g class="cls-3"><path class="cls-4" d="M234.93,162.54c-8.27,4.78-19.4,7.41-31.33,7.41s-23.06-2.63-31.34-7.41c-4.2-2.43-11.25-7.57-11.25-14.7s7.05-12.28,11.25-14.71c8.28-4.78,19.4-7.41,31.34-7.41s23.05,2.63,31.33,7.41c4.2,2.43,11.25,7.57,11.25,14.71s-7.05,12.27-11.25,14.7m-31.34-48.66c-30.51,0-54.41,14.92-54.41,34s23.9,33.95,54.41,33.95S258,166.87,258,147.84s-23.9-34-54.42-34"/><path class="cls-4" d="M161.18,310.73l-33.26-69.94,9.73-31,29.21,12.36,33.29,70Zm52.2-18.26-36.8-77.4a5.89,5.89,0,0,0-3-2.9l-37.28-15.78a5.92,5.92,0,0,0-7.95,3.68l-12.38,39.38a5.92,5.92,0,0,0,.3,4.32L153,321.16a5.89,5.89,0,0,0,7.88,2.8l49.66-23.61a5.92,5.92,0,0,0,2.81-7.88"/><path class="cls-4" d="M388.17,311.58c0,15.44-12,28-26.69,28H343V92.67h18.51c14.72,0,26.69,12.56,26.69,28Zm-45.36-231h-44V73.7h44ZM311.3,203.16V92.67h19.83V339.59H311.3V281.38a7.14,7.14,0,0,0,.08-.93V204.08a7,7,0,0,0-.08-.92m9.53,163.31a18.58,18.58,0,0,1-17.92-14.86h35.83a18.58,18.58,0,0,1-17.91,14.86m-21.37-90a17.74,17.74,0,0,1-4.78.66h-28a17.78,17.78,0,0,1-17.75-17.76V225.15a17.77,17.77,0,0,1,17.75-17.75h28a17.73,17.73,0,0,1,4.78.65ZM240,80.83H160V61.54a2,2,0,0,1,2-2h76.12a2,2,0,0,1,2,2V80.83Zm-139.36-.21h-44V73.7h44Zm-31.9,259V92.67H88.61V339.59H68.78Zm10.3,26.49a18.49,18.49,0,0,1-17.89-14.47H97a18.49,18.49,0,0,1-17.89,14.47M56.94,339.59H38.52c-14.72,0-26.69-12.57-26.69-28V120.67c0-15.44,12-28,26.69-28H56.94V339.59ZM361.48,80.83h-6.83v-13a5.92,5.92,0,0,0-5.92-5.91H292.92A5.92,5.92,0,0,0,287,67.78v13h-9.09V61.54a39.9,39.9,0,0,0-39.85-39.85H188.44a5.92,5.92,0,0,0,0,11.84h49.62a28,28,0,0,1,28,28V80.63h-14.2V61.54a13.82,13.82,0,0,0-13.81-13.81H161.94a13.83,13.83,0,0,0-13.81,13.81V80.63h-14.2V61.54c0-16.76,12.21-28,30.38-28a5.92,5.92,0,0,0,0-11.84c-12.48,0-23.15,4-30.87,11.65a39.16,39.16,0,0,0-11.34,28.2V80.83h-9.58v-13a5.92,5.92,0,0,0-5.92-5.91H50.79a5.92,5.92,0,0,0-5.92,5.91v13H38.52C17.28,80.83,0,98.7,0,120.67V311.58c0,22,17.28,39.84,38.52,39.84H49.15a30.15,30.15,0,0,0,59.86,0h40.25a5.92,5.92,0,1,0,0-11.83H100.45V92.67h199V196a30.63,30.63,0,0,0-4.78-.4h-28a29.62,29.62,0,0,0-29.58,29.59v34.23A29.62,29.62,0,0,0,266.64,289h28a29.46,29.46,0,0,0,4.78-.4v51H173.68a5.92,5.92,0,1,0,0,11.83H290.89c1.95,15.15,14.63,26.89,29.94,26.89s28-11.74,29.93-26.89h10.72c21.24,0,38.52-17.87,38.52-39.84V120.67c0-22-17.28-39.84-38.52-39.84"/></g></g></svg>