<svg xmlns="http://www.w3.org/2000/svg" xmlns:xlink="http://www.w3.org/1999/xlink" viewBox="0 0 400 400"><defs><style>.cls-1{fill:none;}.cls-2{fill:#606060;}.cls-3{clip-path:url(#clip-path);}.cls-4{fill:#fff;}</style><clipPath id="clip-path"><rect class="cls-1" y="-0.01" width="400" height="400.01"/></clipPath></defs><title>icon-crag</title><g id="bkgd"><rect class="cls-2" x="-421" y="-455" width="2629" height="2045"/></g><g id="Layer_1" data-name="Layer 1"><g class="cls-3"><path class="cls-4" d="M204.31,152.92a5.88,5.88,0,0,0-6.22,5.48l-1,15.35a5.86,5.86,0,0,0,5.48,6.22H203a5.85,5.85,0,0,0,5.84-5.49l1-15.36a5.85,5.85,0,0,0-5.48-6.21m10.61-99.3a5.86,5.86,0,1,0-11.71-.49l-3.51,83.35a5.86,5.86,0,0,0,5.61,6.1h.25a5.87,5.87,0,0,0,5.85-5.62ZM394.14,205.71c-19,0-25.33-3.88-32-8-1.61-1-3.27-2-5.11-3l-36.93-81.64a13.33,13.33,0,0,0-6.74-8.43l-34.72-20.8L255.9,51.4a5.86,5.86,0,1,0-9.6,6.72l22.09,31.57L263,125.61a5.85,5.85,0,0,0,4.93,6.66,5.1,5.1,0,0,0,.87.07,5.87,5.87,0,0,0,5.79-5L279,97.77l28.49,17.07c.42.43.61-.42,1.67,2.63l32.56,72A96.73,96.73,0,0,0,324,188c-21.86,0-32.92,4.74-43.63,9.32-10.05,4.3-19.55,8.37-39,8.37s-29-4.07-39-8.37c-10.7-4.58-21.76-9.32-43.63-9.32-22.31,0-30.72,5.16-38.15,9.71-6.69,4.1-13,8-32,8a100.33,100.33,0,0,1-17.28-1.34l24.53-58.61c.32-.3-.26-.84,1.35-2.6l45.61-45.84,10.58,36.35a5.86,5.86,0,0,0,11.26-3.27l-13-44.48,10-47.33a2.07,2.07,0,0,1,.79-1.36l51.26-25.51a1,1,0,0,1,.42.39l20.46,29.26a5.86,5.86,0,0,0,9.61-6.72L223.71,5.39a11.86,11.86,0,0,0-15.2-4.15L157.22,26.73a13.5,13.5,0,0,0-7.05,9.43l-10,47.08L89,134.74a13.9,13.9,0,0,0-4.19,6.92l-25,59.76c-3.62-1.24-6.91-2.65-10.26-4.08C38.79,192.76,27.72,188,5.86,188a5.86,5.86,0,0,0,0,11.72c19.46,0,29,4.07,39,8.37a133.75,133.75,0,0,0,13.8,5.29l30.57,80.09a5.86,5.86,0,0,0,11-4.18l-27.83-72.9a118.7,118.7,0,0,0,16.14,1c22.31,0,30.73-5.16,38.15-9.71,6.69-4.1,13-8,32-8,19.46,0,29,4.07,39,8.37,10.7,4.58,21.76,9.32,43.62,9.32s32.93-4.74,43.64-9.32c10.05-4.3,19.55-8.37,39-8.37,9.94,0,16.4,1.06,21.27,2.66L301.68,335.79a1.66,1.66,0,0,1-.34.35L255.45,321h0l-21-6.84a5.86,5.86,0,1,0-3.63,11.14l13.64,4.45L206.34,387a5.88,5.88,0,0,0-.35.6,1.43,1.43,0,0,1-.53.65s-.12-.06-.25-.2l-41-68.86,12.79-12a5.86,5.86,0,0,0-8-8.55l-16.15,15.11-32.11,28.09c-.08.07-.14.1-.13.11a1.14,1.14,0,0,1-.47-.49l-11.94-31.27a5.86,5.86,0,0,0-11,4.18l12.07,31.61c.06.17.14.34.22.51a12.63,12.63,0,0,0,8.81,7,11.76,11.76,0,0,0,10.1-2.79l26.89-23.52,40,67.18a4.76,4.76,0,0,0,.31.47,12.19,12.19,0,0,0,9.8,5.14c.32,0,.63,0,.95,0a12.44,12.44,0,0,0,9.87-6.69L256,333.57l41.66,13.7c5.67,1.87,11.67-.76,14.58-6.38a5.65,5.65,0,0,0,.37-.88l43.22-132.38.14.09c7.42,4.55,15.84,9.71,38.15,9.71a5.86,5.86,0,1,0,0-11.72"/></g></g></svg>