<svg xmlns="http://www.w3.org/2000/svg" xmlns:xlink="http://www.w3.org/1999/xlink" viewBox="0 0 400 400"><defs><style>.cls-1{fill:none;}.cls-2{fill:#606060;}.cls-3{clip-path:url(#clip-path);}.cls-4{fill:#fff;}</style><clipPath id="clip-path"><rect class="cls-1" width="400" height="400"/></clipPath></defs><title>icon-rain</title><g id="bkgd"><rect class="cls-2" x="-1261" y="-455" width="2629" height="2045"/></g><g id="Layer_1" data-name="Layer 1"><g class="cls-3"><path class="cls-4" d="M7.88,293.21a8.08,8.08,0,0,1,0-16.16,8.08,8.08,0,0,1,0,16.16m328-87a111,111,0,0,0,6.82-38.2l32.59,26Zm-32,45.9a108.93,108.93,0,0,0,24.46-29.66l15.33,39.21Zm51.22,62.6c12.15,0,22,10.15,22,22.62s-9.89,22.61-22,22.61-22.05-10.14-22.05-22.61,9.89-22.62,22.05-22.62m-100.35-75a76.21,76.21,0,0,0-33.24,7.59c-11.53-36.21-39.9-64.62-75.62-75.49C144.3,117.53,186.57,75,236.38,75s90.56,41.67,90.56,92.89c0,31.56-15.85,61.11-41.61,78.14a76.33,76.33,0,0,0-30.56-6.36M137,129.11a110.91,110.91,0,0,0-6.94,38l-32.38-25.8Zm32.4-45.85a109.23,109.23,0,0,0-24.8,29.62L129.29,73.63Zm20.11-52,30.11,29a104,104,0,0,0-35.72,12.87Zm72.77-5.88,12,40.66A103.54,103.54,0,0,0,237,58.85ZM328.2,57.6,318.75,99A107.92,107.92,0,0,0,289.8,73.65Zm41.34,61.71-28.26,30.91a110.06,110.06,0,0,0-12.78-36.71ZM397,190.78,355.78,158l35.67-39a8.22,8.22,0,0,0,1.67-8.22,7.92,7.92,0,0,0-6.34-5.3l-51.65-7.3L347,46.07a8.22,8.22,0,0,0-2.55-8,7.73,7.73,0,0,0-8.09-1.34L288.08,56.92,273,5.74a8,8,0,0,0-6.1-5.61,7.8,7.8,0,0,0-7.65,3l-32,42.24-38-36.59a7.74,7.74,0,0,0-8-1.72A8,8,0,0,0,176,13.56l-7.11,53L118.14,54.37a7.74,7.74,0,0,0-7.76,2.6A8.24,8.24,0,0,0,109,65.24l19.41,49.65L78.57,130.38a8,8,0,0,0-5.46,6.26A8.19,8.19,0,0,0,76,144.49l28.66,22.83c-46.35,3.67-84.9,35.88-99,79.52h0c-3.3,10.22,11.65,15.3,15,5.08V252c12.78-39.35,48.78-68.09,91.13-68.84,47.28-.84,87.05,32.72,97.11,77.9A7.86,7.86,0,0,0,221,266a61,61,0,0,1,35.19-10.18c32.45.73,59.21,27.3,60.91,60.55,1.89,36.92-26.74,67.46-62.31,67.46H113.55c-42.23,0-78.21-27.45-91.91-65.9C18,307.83,3.26,313.37,6.86,323.48l0,0C22.72,368.12,64.5,400,113.55,400H254.77c29.57,0,55.31-16.86,68.58-41.71a37.6,37.6,0,0,0,31.77,17.79c20.84,0,37.79-17.39,37.79-38.77s-17-38.77-37.79-38.77a37,37,0,0,0-23.24,8.23,80.74,80.74,0,0,0-14.45-34.84l37.4,9a7.64,7.64,0,0,0,7.77-2.6,8.26,8.26,0,0,0,1.34-8.27l-19.41-49.66,49.88-15.48a8,8,0,0,0,5.46-6.26,8.21,8.21,0,0,0-2.91-7.85"/></g></g></svg>