<svg xmlns="http://www.w3.org/2000/svg" xmlns:xlink="http://www.w3.org/1999/xlink" viewBox="0 0 400 400"><defs><style>.cls-1{fill:none;}.cls-2{fill:#606060;}.cls-3{clip-path:url(#clip-path);}.cls-4{fill:#fff;}</style><clipPath id="clip-path"><rect class="cls-1" x="11" width="378.78" height="400"/></clipPath></defs><title>icon-temp</title><g id="bkgd"><rect class="cls-2" x="-421" y="-875" width="2629" height="2045"/></g><g id="Layer_1" data-name="Layer 1"><g class="cls-3"><path class="cls-4" d="M146.62,254.53a6.67,6.67,0,0,1-11.64-4,6.61,6.61,0,0,1,1.68-4.82c18.68-21,26.93-43.15,24.51-65.85-1.78-16.65-9.22-33.69-22.12-50.64A190.58,190.58,0,0,0,108.6,98a5.85,5.85,0,0,0-6.94-.34c-18.28,12.11-61.24,44.52-65.29,83.92-2.24,21.8,7.83,43.2,29.94,63.61a6.67,6.67,0,0,1-9,9.8c-25.36-23.41-36.86-48.57-34.16-74.78,2.21-21.44,13.87-43,34.66-64A232.78,232.78,0,0,1,102.2,81.56a6.66,6.66,0,0,1,7.36.33C123.44,92,169.15,129,174.42,178.41c2.84,26.59-6.51,52.2-27.8,76.12M111.89,11.72a60.62,60.62,0,0,1,60.45,57v0a349.56,349.56,0,0,1-1.94,62.38C153.06,101,126.69,79.9,116.46,72.42a18.35,18.35,0,0,0-20.29-.91C82.64,79.63,46.36,103.59,25.79,138a372.37,372.37,0,0,1-2-38.18,88.18,88.18,0,0,1,88.08-88.08m74.19,165.45a108.76,108.76,0,0,0-6.6-27.07,361.08,361.08,0,0,0,4.56-82v0A72.35,72.35,0,0,0,111.89,0a99.91,99.91,0,0,0-99.8,99.8,385.86,385.86,0,0,0,4.36,57.71,90.69,90.69,0,0,0-5,21.51c-2.43,23.69,5,46.38,22,67.67,1.45,9.67,2.49,19.5,3.09,29.25a5.86,5.86,0,0,0,5.84,5.5h.36a5.85,5.85,0,0,0,5.49-6.2c-.27-4.56-.66-9.14-1.12-13.71.73.7,1.47,1.4,2.22,2.09a18.39,18.39,0,0,0,24.94-27C55,218.82,46.18,200.72,48,182.79c3.31-32.17,38.16-60.24,56.5-72.91,37,31.55,43.81,60.15,45,71.19,2.06,19.27-5.21,38.39-21.61,56.81A18.39,18.39,0,0,0,150,266.47c-.08,3.1-.13,6.2-.13,9.29v62a50.51,50.51,0,0,1-101,0V300.6a5.86,5.86,0,0,0-11.72,0v37.18a62.22,62.22,0,0,0,124.44,0v-62c0-7.24.25-14.57.73-21.8C181,229.84,189,204.05,186.08,177.17"/><path class="cls-4" d="M343.52,255a6.67,6.67,0,0,1-9-9.8c22.1-20.41,32.18-41.81,29.93-63.61-1.93-18.76-12.64-37.93-31.85-57a5.86,5.86,0,1,0-8.26,8.31c17.24,17.1,26.81,33.88,28.45,49.87,1.85,17.93-7,36-26.22,53.8a18.39,18.39,0,1,0,24.94,27l2.23-2.1a342.34,342.34,0,0,0-1.78,34.6v41.67h0a50.5,50.5,0,1,1-101,0v-62c0-3.09-.06-6.19-.14-9.29a18.38,18.38,0,0,0,22.1-28.59c-16.4-18.42-23.67-37.54-21.61-56.81,1.18-11,8-39.64,45-71.2,3.29,2.28,6.54,4.65,9.7,7.09a5.86,5.86,0,1,0,7.16-9.27c-4.53-3.51-9.25-6.88-14-10a5.86,5.86,0,0,0-6.94.34,189.77,189.77,0,0,0-30.44,31.17c-12.9,16.95-20.35,34-22.13,50.64-2.42,22.7,5.83,44.85,24.51,65.85a6.65,6.65,0,0,1-5,11.09,6.69,6.69,0,0,1-5-2.23c-21.28-23.92-30.64-49.53-27.8-76.12,5.28-49.46,51-86.38,64.86-96.52a6.66,6.66,0,0,1,7.37-.33A233.1,233.1,0,0,1,343,116.2c20.8,21,32.46,42.58,34.66,64,2.7,26.21-8.79,51.37-34.15,74.78M228.44,68.72v0a60.62,60.62,0,0,1,60.45-57A88.18,88.18,0,0,1,377,99.8,372.55,372.55,0,0,1,375,138c-20.57-34.39-56.85-58.36-70.38-66.48a18.36,18.36,0,0,0-20.31.92C274.08,79.9,247.72,101,230.38,131.1a349.53,349.53,0,0,1-1.94-62.38M389.33,179a90.64,90.64,0,0,0-5-21.52,387.17,387.17,0,0,0,4.35-57.71A99.91,99.91,0,0,0,288.89,0a72.35,72.35,0,0,0-72.15,68v0a360.54,360.54,0,0,0,4.57,82,107.89,107.89,0,0,0-6.6,27.07c-2.87,26.88,5.12,52.67,23.77,76.8.47,7.22.72,14.55.72,21.79v62a62.22,62.22,0,1,0,124.44,0V296.11a332.61,332.61,0,0,1,3.71-49.43c17-21.29,24.42-44,22-67.65"/></g></g></svg>