<svg xmlns="http://www.w3.org/2000/svg" xmlns:xlink="http://www.w3.org/1999/xlink" viewBox="0 0 400 400"><defs><style>.cls-1{fill:none;}.cls-2{fill:#606060;}.cls-3{clip-path:url(#clip-path);}.cls-4{fill:#fff;}</style><clipPath id="clip-path"><rect class="cls-1" width="400" height="400"/></clipPath></defs><title>icon-tourists</title><g id="bkgd"><rect class="cls-2" x="-1261" y="-875" width="2629" height="2045"/></g><g id="Layer_1" data-name="Layer 1"><g class="cls-3"><path class="cls-4" d="M393,149.76a7,7,0,0,0-7,7v199A30.31,30.31,0,0,1,355.73,386H44.27A30.31,30.31,0,0,1,14,355.78V234a7,7,0,0,0-14,0V355.78A44.3,44.3,0,0,0,44.27,400H355.73A44.3,44.3,0,0,0,400,355.78v-199a7,7,0,0,0-7-7"/><path class="cls-4" d="M42.23,171.91a2.33,2.33,0,0,1,2.33-2.33h72.87a117.78,117.78,0,0,0,26.88,188.24H44.56a2.33,2.33,0,0,1-2.33-2.33Zm261.88,81.92A104.17,104.17,0,0,1,200,357.82c-57.4,0-104.11-46.65-104.11-104a104.11,104.11,0,0,1,208.22,0m51.33-84.25a2.33,2.33,0,0,1,2.33,2.33V355.49a2.33,2.33,0,0,1-2.33,2.33H255.69a117.78,117.78,0,0,0,26.88-188.24ZM44.56,371.79H355.44a16.33,16.33,0,0,0,16.32-16.3V171.91a16.32,16.32,0,0,0-16.32-16.29h-90.1a117.94,117.94,0,0,0-130.67,0H44.56a16.32,16.32,0,0,0-16.31,16.29V355.49a16.32,16.32,0,0,0,16.31,16.3"/><path class="cls-4" d="M42.16,70.72a2.33,2.33,0,0,1,2.33-2.33H67.27a2.33,2.33,0,0,1,2.33,2.33v37.81a2.33,2.33,0,0,1-2.33,2.33H44.49a2.33,2.33,0,0,1-2.33-2.33Zm2.33,54.1H67.27a16.32,16.32,0,0,0,16.32-16.29V70.72A16.32,16.32,0,0,0,67.27,54.43H44.49A16.32,16.32,0,0,0,28.18,70.72v37.81a16.32,16.32,0,0,0,16.31,16.29"/><path class="cls-4" d="M357.77,108.53a2.33,2.33,0,0,1-2.33,2.33H279.93a2.34,2.34,0,0,1-2.33-2.33V70.72a2.33,2.33,0,0,1,2.33-2.32h75.51a2.32,2.32,0,0,1,2.33,2.32Zm14-37.81a16.32,16.32,0,0,0-16.32-16.29H279.93a16.32,16.32,0,0,0-16.31,16.29v37.81a16.32,16.32,0,0,0,16.31,16.29h75.51a16.32,16.32,0,0,0,16.32-16.29Z"/><path class="cls-4" d="M235.24,61.41a7,7,0,0,0-7-7H171.76a7,7,0,1,0,0,14h56.49a7,7,0,0,0,7-7"/><path class="cls-4" d="M181.17,82.64a7,7,0,1,0,0,14h37.66a7,7,0,1,0,0-14Z"/><path class="cls-4" d="M200,198.87a55,55,0,1,1-55,55,55,55,0,0,1,55-55m0,123.88a68.92,68.92,0,1,0-69-68.92,69,69,0,0,0,69,68.92"/><path class="cls-4" d="M200,229.84a24,24,0,1,1-24,24,24,24,0,0,1,24-24m0,61.94a38,38,0,1,0-38-37.95,38,38,0,0,0,38,37.95"/><path class="cls-4" d="M7,186.49a7,7,0,0,0,7-7V44.22A30.31,30.31,0,0,1,44.27,14H355.73A30.31,30.31,0,0,1,386,44.22v58a7,7,0,0,0,14,0v-58A44.3,44.3,0,0,0,355.73,0H44.27A44.3,44.3,0,0,0,0,44.22V179.51a7,7,0,0,0,7,7"/></g></g></svg>