<svg xmlns="http://www.w3.org/2000/svg" xmlns:xlink="http://www.w3.org/1999/xlink" viewBox="0 0 400 400"><defs><style>.cls-1{fill:none;}.cls-2{fill:#606060;}.cls-3{clip-path:url(#clip-path);}.cls-4{fill:#fff;}</style><clipPath id="clip-path"><rect class="cls-1" width="400" height="400"/></clipPath></defs><title>icon-culture</title><g id="bkgd"><rect class="cls-2" x="-421" y="-1295" width="2629" height="2045"/></g><g id="Layer_1" data-name="Layer 1"><g class="cls-3"><path class="cls-4" d="M56.38,11.72A51,51,0,0,1,11.72,56.38V11.72ZM11.72,90.9V68.17A62.71,62.71,0,0,0,68.17,11.72H90.9A85.36,85.36,0,0,1,11.72,90.9m114-79.18A62.71,62.71,0,0,0,182.2,68.17V90.9A85.34,85.34,0,0,1,103,11.72ZM182.2,56.38a51,51,0,0,1-44.66-44.66H182.2Zm11.72,0V11.72h44.66a51,51,0,0,1-44.66,44.66m48,23.19a5.86,5.86,0,0,0,8.25.74,96.92,96.92,0,0,0,29-41.22A97.41,97.41,0,0,0,337.05,97a97.49,97.49,0,0,0-57.89,57.89A97.48,97.48,0,0,0,221.3,97c1.23-.45,2.45-.92,3.67-1.43a5.86,5.86,0,1,0-4.46-10.83,84.3,84.3,0,0,1-26.59,6.19V68.17a62.69,62.69,0,0,0,56.44-56.45H273.1a85,85,0,0,1-30.43,59.59,5.87,5.87,0,0,0-.74,8.26m66-67.85A62.71,62.71,0,0,0,364.4,68.17V90.9a85.34,85.34,0,0,1-79.18-79.18ZM364.4,56.38a51,51,0,0,1-44.66-44.66H364.4ZM319.74,182.2a51,51,0,0,1,44.66-44.66V182.2Zm44.66-56.44A62.69,62.69,0,0,0,308,182.2H285.22A85.36,85.36,0,0,1,364.4,103v22.74Zm-114,56.44a62.67,62.67,0,0,0-56.44-56.44V103A85.38,85.38,0,0,1,273.1,182.2Zm-56.44-44.66a51,51,0,0,1,44.66,44.66H193.92ZM182.2,250.37V273.1A85.34,85.34,0,0,1,103,193.92h22.73a62.71,62.71,0,0,0,56.45,56.45m0,114H137.54a51,51,0,0,1,44.66-44.66Zm0-79.18V308a62.69,62.69,0,0,0-56.45,56.44H103a85.36,85.36,0,0,1,79.18-79.18m-114,79.18A62.69,62.69,0,0,0,11.72,308V285.22A85.38,85.38,0,0,1,90.9,364.4ZM11.72,319.74A51,51,0,0,1,56.38,364.4H11.72ZM97,154.85A97.49,97.49,0,0,0,39.07,97,97.49,97.49,0,0,0,97,39.07,97.49,97.49,0,0,0,154.85,97,97.49,97.49,0,0,0,97,154.85m0,66.42a97.49,97.49,0,0,0,57.89,57.89A97.49,97.49,0,0,0,97,337.05a97.49,97.49,0,0,0-57.89-57.89A97.49,97.49,0,0,0,97,221.27M56.38,193.92a51,51,0,0,1-44.66,44.66V193.92ZM68.17,182.2a62.69,62.69,0,0,0-56.45-56.44V103A85.38,85.38,0,0,1,90.9,182.2Zm114-56.44a62.69,62.69,0,0,0-56.45,56.44H103A85.36,85.36,0,0,1,182.2,103Zm0,56.44H137.54a51,51,0,0,1,44.66-44.66ZM11.72,137.54A51,51,0,0,1,56.38,182.2H11.72Zm0,112.83a62.71,62.71,0,0,0,56.45-56.45H90.9A85.36,85.36,0,0,1,11.72,273.1ZM11.1,376.12H182.81A11.12,11.12,0,0,0,193.92,365V231.47a5.86,5.86,0,0,0-11.72,0v7.11a51,51,0,0,1-44.66-44.66H182.2v10.21a5.86,5.86,0,1,0,11.72,0V193.92H365a11.12,11.12,0,0,0,11.11-11.1V11.11A11.12,11.12,0,0,0,365,0H193.3a11,11,0,0,0-5.24,1.32A11,11,0,0,0,182.81,0H11.1A11.12,11.12,0,0,0,0,11.11V182.82a11,11,0,0,0,1.32,5.24A11,11,0,0,0,0,193.31V365a11.11,11.11,0,0,0,11.1,11.1"/><path class="cls-4" d="M343.62,388.28a50.75,50.75,0,0,1,12.46-27.88,5.86,5.86,0,1,0-8.76-7.78,62.41,62.41,0,0,0-15.48,35.66H309.1a85.36,85.36,0,0,1,79.18-79.18v22.73a62,62,0,0,0-15.67,3.54,5.86,5.86,0,1,0,4,11,50.08,50.08,0,0,1,11.64-2.75v44.66Zm-69.38,0a62.67,62.67,0,0,0-56.44-56.44V309.1A85.38,85.38,0,0,1,297,388.28ZM217.8,343.62a51,51,0,0,1,44.66,44.66H217.8ZM262.46,217.8a51,51,0,0,1-44.66,44.66V217.8ZM217.8,297V274.25a62.69,62.69,0,0,0,56.44-56.45H297A85.36,85.36,0,0,1,217.8,297M360.93,303A97.49,97.49,0,0,0,303,360.93,97.49,97.49,0,0,0,245.15,303,97.49,97.49,0,0,0,303,245.15,97.49,97.49,0,0,0,360.93,303m-29.1-85.24a62.71,62.71,0,0,0,56.45,56.45V297A85.34,85.34,0,0,1,309.1,217.8Zm56.45,44.66a51,51,0,0,1-44.66-44.66h44.66Zm.61-56.38H217.18a11.12,11.12,0,0,0-11.1,11.11V388.9a11.11,11.11,0,0,0,11.1,11.1H388.9A11.11,11.11,0,0,0,400,388.9V217.19a11.12,11.12,0,0,0-11.11-11.11"/><path class="cls-4" d="M97,111.26,82.66,97,97,82.66,111.26,97Zm-4.47-40.7L70.55,92.5a6.32,6.32,0,0,0,0,8.93l21.93,21.94a6.33,6.33,0,0,0,8.94,0l21.93-21.94a6.31,6.31,0,0,0,0-8.94L101.43,70.56a6.32,6.32,0,0,0-8.94,0"/><path class="cls-4" d="M278.6,82.66,292.9,97l-14.3,14.3L264.3,97Zm-4.47,40.7a6.31,6.31,0,0,0,8.94,0L305,101.43a6.34,6.34,0,0,0,0-8.94L283.07,70.56a6.31,6.31,0,0,0-8.94,0L252.2,92.49a6.31,6.31,0,0,0,0,8.94Z"/><path class="cls-4" d="M303,317.34,288.74,303l14.3-14.3,14.3,14.3Zm-4.47-40.7-21.93,21.93a6.32,6.32,0,0,0,0,8.94l21.94,21.94a6.33,6.33,0,0,0,8.93,0l21.94-21.94a6.33,6.33,0,0,0,0-8.93l-21.93-21.93A6.32,6.32,0,0,0,298.57,276.64Z"/><path class="cls-4" d="M97,264.86l14.3,14.3L97,293.46l-14.3-14.3ZM92.5,305.57a6.33,6.33,0,0,0,8.93,0l21.93-21.93a6.31,6.31,0,0,0,0-8.94l-21.93-21.93a6.32,6.32,0,0,0-8.94,0L70.55,274.69a6.33,6.33,0,0,0,0,8.94c20.68,20.68,21.89,21.86,22,21.94"/></g></g></svg>