<svg xmlns="http://www.w3.org/2000/svg" xmlns:xlink="http://www.w3.org/1999/xlink" viewBox="0 0 400 400"><defs><style>.cls-1{fill:none;}.cls-2{fill:#606060;}.cls-3{clip-path:url(#clip-path);}.cls-4{fill:#fff;}</style><clipPath id="clip-path"><rect class="cls-1" width="400" height="400"/></clipPath></defs><title>icon-sunshine</title><g id="bkgd"><rect class="cls-2" x="-841" y="-455" width="2629" height="2045"/></g><g id="Layer_1" data-name="Layer 1"><g class="cls-3"><path class="cls-4" d="M131.58,233.26A77.88,77.88,0,0,1,124.25,186,73.89,73.89,0,0,1,147,143.47a74.83,74.83,0,0,1,61.2-19.32,4,4,0,0,0,4.57-3.55,4.23,4.23,0,0,0-3.64-4.65,83,83,0,0,0-67.83,21.41,82,82,0,0,0-25.16,47.15,86.25,86.25,0,0,0,8.13,52.37,4,4,0,0,0,.68,1,4.19,4.19,0,0,0,4.88.92,4.08,4.08,0,0,0,1.8-5.53"/><path class="cls-4" d="M260.87,142.79a86.88,86.88,0,0,0-37.66-23.73,4.05,4.05,0,0,0-5.12,2.72A4.21,4.21,0,0,0,220.9,127a78.43,78.43,0,0,1,34,21.42c29,31.13,27.85,79.58-2.63,108s-78.9,26.22-107.94-4.91a82.06,82.06,0,0,1-6-7.22,4.16,4.16,0,0,0-5.79-1,4.11,4.11,0,0,0-.84,5.78,88.2,88.2,0,0,0,6.62,8c32.17,34.5,85.83,36.93,119.62,5.43s35.1-85.21,2.93-119.71"/><path class="cls-4" d="M331,255a6,6,0,0,0-3.64,3.14,5.83,5.83,0,0,0-.12,4.75l20.32,48.74-53.17-7.11a6.11,6.11,0,0,0-4.66,1.31,5.86,5.86,0,0,0-2.18,4.24l-2.95,52.58-44.92-28.8a6.18,6.18,0,0,0-4.78-.78,6,6,0,0,0-3.83,2.91l-25.63,46.26-28-44.92a6,6,0,0,0-4-2.71,5.81,5.81,0,0,0-1.17-.12,6.08,6.08,0,0,0-3.56,1.14l-43.37,31-5.67-52.37a5.83,5.83,0,0,0-2.4-4.12,6.09,6.09,0,0,0-4.72-1.07L59.89,318.8l17.75-49.68a5.82,5.82,0,0,0-.36-4.74,6,6,0,0,0-3.8-2.95L21.59,248l37.76-37.41a5.85,5.85,0,0,0-.4-8.7L17.92,168l50.46-17.9a6,6,0,0,0,3.51-3.28,5.79,5.79,0,0,0-.07-4.75L49.59,94.14,103,99.2a6.13,6.13,0,0,0,4.61-1.48,5.91,5.91,0,0,0,2-4.32l.86-52.65,52.94,31.11a6.2,6.2,0,0,0,4.58.66,6,6,0,0,0,3.71-2.72l31.57-52,26.19,46a6.1,6.1,0,0,0,8.63,2l44.58-29.32L286.25,89a5.85,5.85,0,0,0,2.24,4.21,6.11,6.11,0,0,0,4.67,1.25l53.07-7.72-19.72,49a5.83,5.83,0,0,0,.18,4.75,6,6,0,0,0,3.68,3.09l51.32,15.37-39.22,35.93a5.85,5.85,0,0,0,0,8.71L382.17,239Zm67-17.8-42.54-38.07,42.08-38.56a5.87,5.87,0,0,0,1.76-5.66,6,6,0,0,0-4.12-4.33l-55.07-16.49L361.3,81.54a5.82,5.82,0,0,0-.88-5.86,6.1,6.1,0,0,0-5.62-2.18l-56.94,8.29L294,25.41a5.92,5.92,0,0,0-3.36-4.92,6.13,6.13,0,0,0-6,.4L236.81,52.34,208.7,3a6.09,6.09,0,0,0-10.45-.14L164.42,58.64,107.7,25.31a6.13,6.13,0,0,0-6-.1,5.94,5.94,0,0,0-3.1,5.09l-.92,56.49-57.3-5.43a6.06,6.06,0,0,0-5.49,2.45,5.81,5.81,0,0,0-.58,5.9l23.85,51.42L4,160.34a6,6,0,0,0-3.89,4.53,5.87,5.87,0,0,0,2.06,5.57l44,36.41L5.66,247a5.84,5.84,0,0,0-1.54,5.73,6,6,0,0,0,4.29,4.17l55.67,14.36L45,324.56a5.83,5.83,0,0,0,1.12,5.82,6.08,6.08,0,0,0,5.69,2l56.58-10.46,6.08,56.18a6,6,0,0,0,3.55,4.79,6.14,6.14,0,0,0,6-.63L170.59,349l30,48.2a6.07,6.07,0,0,0,5.15,2.83h.15a6,6,0,0,0,5.15-3.09l27.5-49.63,48.21,30.89a6.13,6.13,0,0,0,6,.32,5.89,5.89,0,0,0,3.3-5l3.17-56.41,57,7.62a6.07,6.07,0,0,0,5.58-2.24,5.8,5.8,0,0,0,.82-5.87l-21.8-52.29,54.86-17.13a6,6,0,0,0,4.07-4.37,5.87,5.87,0,0,0-1.83-5.65"/><path class="cls-4" d="M101.27,248.12a112.55,112.55,0,0,1-10.59-68.33,106.76,106.76,0,0,1,32.81-61.47A108.16,108.16,0,0,1,212,90.39a5.86,5.86,0,0,0,6.62-5.14,6.13,6.13,0,0,0-5.26-6.73,119.91,119.91,0,0,0-98.07,31,118.39,118.39,0,0,0-36.37,68.16,124.67,124.67,0,0,0,11.75,75.71,5.73,5.73,0,0,0,1,1.42,6,6,0,0,0,7,1.34,5.9,5.9,0,0,0,2.6-8"/><path class="cls-4" d="M288.19,117.33A125.64,125.64,0,0,0,233.75,83,5.87,5.87,0,0,0,226.33,87a6.1,6.1,0,0,0,4.07,7.49,113.38,113.38,0,0,1,49.12,31c42,45,40.26,115.06-3.8,156.15s-114.07,37.91-156-7.09A114.41,114.41,0,0,1,111,264a6,6,0,0,0-8.37-1.38,6,6,0,0,0-1.22,8.35A128.39,128.39,0,0,0,111,282.55c46.51,49.87,124.09,53.39,172.94,7.84s50.75-123.18,4.24-173.06"/></g></g></svg>