<svg xmlns="http://www.w3.org/2000/svg" viewBox="0 0 202.5 167.5"><defs><style>.cls-1{fill:#fff;}</style></defs><title>Logo_Vert - White</title><g id="Logo"><path class="cls-1" d="M12.5,105H41.07q7,0,10.28,3.18t3.29,9.68a11.93,11.93,0,0,1-1.86,7,10,10,0,0,1-4.57,3.75,11.07,11.07,0,0,1,7.86,7.72,16.63,16.63,0,0,1,.71,5.14c0,4.67-1.09,8.09-3.28,10.29S47.88,155,43.21,155H12.5Zm29.28,14.29q0-4.29-4.28-4.29H25.35v10H37.5q4.28,0,4.28-4.28Zm2.15,20q0-4.29-4.29-4.29H25.35v10H39.64q4.29,0,4.29-4.29Z"/><polygon class="cls-1" points="100 155 60 155 60 105 100 105 100 115 72.86 115 72.86 124.65 95 124.65 95 134.64 72.86 134.64 72.86 145 100 145 100 155"/><path class="cls-1" d="M130,155H117.15V115h-15V105H145v10H130Z"/><path class="cls-1" d="M151.79,155H137.86l18.93-50h14.28L190,155H176.07l-3.21-8.93H155Zm6.42-18.21h11.43L163.93,120Z"/><polygon class="cls-1" points="148.75 12.5 136.25 12.5 136.25 25 148.75 25 148.75 80 78.75 80 78.75 92.5 148.75 92.5 161.25 92.5 161.25 80 161.25 12.5 148.75 12.5"/><polygon class="cls-1" points="53.75 25 123.75 25 123.75 12.5 53.75 12.5 41.25 12.5 41.25 25 41.25 92.5 53.75 92.5 66.25 92.5 66.25 80 53.75 80 53.75 25"/></g></svg>