<svg id="Gebla-Logos" xmlns="http://www.w3.org/2000/svg" viewBox="0 0 595.28 265.72"><defs><style>.cls-1{fill:#eeedf3;}</style></defs><title>Gebla-Logo-Light-Grey</title><g id="Gebla-Logo-Light-Grey"><path class="cls-1" d="M84.65,246.11,81,244.48a.31.31,0,0,0-.43.11l0,.06A3.7,3.7,0,0,1,77,247.2a3.3,3.3,0,0,1-3.39-2.49c-.27-.82-.37-1.61-.37-4.84s.1-4,.37-4.84A3.31,3.31,0,0,1,77,232.54a3.74,3.74,0,0,1,3.58,2.56.3.3,0,0,0,.38.2l.08,0,3.62-1.63a.26.26,0,0,0,.21-.29.19.19,0,0,0,0-.1c-1.24-3.16-4-5-7.86-5s-6.84,1.87-8,5.55c-.5,1.46-.63,2.62-.63,6.1s.13,4.65.63,6.11c1.19,3.68,4.08,5.54,8,5.54a8,8,0,0,0,7.86-5,.24.24,0,0,0,0-.35A.21.21,0,0,0,84.65,246.11Z"/><path class="cls-1" d="M130.87,246.8h-10a.17.17,0,0,1-.2-.15V228.92a.31.31,0,0,0-.29-.33h-4.25a.3.3,0,0,0-.34.28v21.95a.32.32,0,0,0,.3.33h14.73a.32.32,0,0,0,.34-.3v-3.72a.33.33,0,0,0-.31-.33Z"/><path class="cls-1" d="M166.49,228.59h-4.21a.3.3,0,0,0-.33.28v21.95a.3.3,0,0,0,.28.33h4.26a.31.31,0,0,0,.33-.29V228.92a.3.3,0,0,0-.28-.33Z"/><path class="cls-1" d="M219.7,228.59h-3.88a.5.5,0,0,0-.53.33l-5.6,12.87h-.14l-5.73-12.87a.52.52,0,0,0-.54-.33h-3.94a.31.31,0,0,0-.34.28v21.95a.31.31,0,0,0,.29.33h3.78a.31.31,0,0,0,.33-.29V238.11h.14l4.22,9.55a.6.6,0,0,0,.62.43h2.28a.62.62,0,0,0,.63-.43l4.17-9.53h.18v12.71a.31.31,0,0,0,.29.33h3.78a.3.3,0,0,0,.33-.28.09.09,0,0,0,0,0v-21.9a.31.31,0,0,0-.27-.35Z"/><path class="cls-1" d="M265.93,239.47v-.07a5.09,5.09,0,0,0,2.59-4.81c0-3.59-2.29-6-7.2-6h-8.77a.31.31,0,0,0-.33.28v21.95a.31.31,0,0,0,.29.33h8.6c4.88,0,7.84-2.12,7.84-6.57A5.35,5.35,0,0,0,265.93,239.47Zm-8.83-6.74a.17.17,0,0,1,.15-.2h3.5c1.86,0,2.95,1,2.95,2.62s-1.09,2.65-2.95,2.65h-3.42a.17.17,0,0,1-.2-.14.06.06,0,0,1,0-.06ZM261,247.2h-3.73c-.14,0-.2-.07-.2-.21v-5.24a.18.18,0,0,1,.15-.2H261c2,0,3.06,1.1,3.06,2.82S263,247.2,261,247.2Z"/><path class="cls-1" d="M304.88,228.59h-4.21a.3.3,0,0,0-.33.28.09.09,0,0,0,0,0v21.9a.31.31,0,0,0,.3.33h4.25a.31.31,0,0,0,.33-.29V228.92a.3.3,0,0,0-.28-.33Z"/><path class="cls-1" d="M354.49,228.59h-3.74a.31.31,0,0,0-.33.28v14.25h-.17l-8-14.2a.61.61,0,0,0-.57-.33h-4a.31.31,0,0,0-.33.29v21.94a.31.31,0,0,0,.29.33h3.77a.33.33,0,0,0,.34-.29V236.65H342l8,14.17a.6.6,0,0,0,.57.33h3.94a.31.31,0,0,0,.33-.29V228.92a.3.3,0,0,0-.28-.33Z"/><path class="cls-1" d="M403.79,238.61h-7.72a.31.31,0,0,0-.34.29v3.23a.31.31,0,0,0,.29.33h3.09a.18.18,0,0,1,.21.15v0a7.63,7.63,0,0,1-.27,2.22,3.56,3.56,0,0,1-3.62,2.32,3.51,3.51,0,0,1-3.68-2.49c-.27-.79-.37-1.86-.37-4.84s.1-4,.37-4.81a3.48,3.48,0,0,1,3.61-2.49,4.11,4.11,0,0,1,3.89,2.33c.07.16.23.23.47.16l3.54-1.49a.34.34,0,0,0,.16-.46s0,0,0,0c-1.06-2.72-3.82-4.82-8-4.82-4,0-7.13,1.83-8.29,5.48-.5,1.56-.62,2.82-.62,6.18s.13,4.61.62,6.17c1.16,3.64,4.29,5.47,8.29,5.47s7.11-2,8.23-5.63a18,18,0,0,0,.56-5.11V239a.31.31,0,0,0-.28-.34Z"/><path class="cls-1" d="M155.8,183.58V169.89h29.4V146.38H155.8V132.69h32.83V110.28h-63.2V206h63.86V183.58Z"/><path class="cls-1" d="M261.12,155.71a25.22,25.22,0,0,0,12.08-21.09c0-14.22-11.86-24.34-28.62-24.34h-46V206H245c18.34,0,30.87-10.8,30.87-26.39A26.55,26.55,0,0,0,261.12,155.71ZM227.3,133.25h9.89c4.49,0,7.39,2.74,7.39,6.85s-2.9,6.84-7.39,6.84H227.3Zm10.58,49.38H227.3v-14.5h10.58c4.74,0,8,2.88,8,7.26s-3.32,7.24-8.06,7.24Z"/><path class="cls-1" d="M314.56,177.3v-67h-31.4V206h62.13V177.3Z"/><path class="cls-1" d="M434.59,144.44l-44.17-34L353.71,206h33.11l2.32-7.51H422l2.23,7.5h34.16ZM394.33,177.3l11.28-33.21L417,177.3Z"/><path class="cls-1" d="M68.76,153.9v7.19l12.76,9.37c-2.25,5.46-8.6,9-16.56,9-11.48,0-19.14-8.48-19.14-21.33S53.48,136.81,65,136.81a19.7,19.7,0,0,1,15.09,6.84l18.79-24.53C90,111.84,78.14,107.54,65,107.54c-29.81,0-50.79,20.92-50.79,50.61s21,50.6,50.79,50.6c30.21,0,50.39-22,50.39-54.85Z"/><path class="cls-1" d="M558.51,14.17H412.07L385.69,65,467,121.91l32.14,101.58,82-110.74Zm11.68,91.77-87.25,8,69.29-86.15ZM529.63,23.29,458.74,48.8,427.63,23.29ZM397.47,62.08,416.3,25.83l37.4,30.66,10.47,52.3ZM463.1,57,539,29.58l-65.2,81.05Zm39.36,146.72-25.36-80.1,90.77-8.27Z"/><ellipse class="cls-1" cx="64.76" cy="84.56" rx="10.12" ry="10.59"/></g></svg>